PathFileType	4	(X/Y/Z)	C:/Users/opensim2020/Desktop/walking_exp_matlab/subject06_walking14_straight_04.trc																																																																																																																																					
DataRate	CameraRate	NumFrames	NumMarkers	Units	OrigDataRate	OrigDataStartFrame	OrigNumFrames																																																																																																																																	
100	100	6	45	mm	100	2973	227																																																																																																																																	
Frame#	Time	LFHD			RFHD			LBHD			RBHD			C7			T10			CLAV			STRN			RBAK			LSHO			LUPA			LELB			LFRM			LWRA			LWRB			LFIN			RSHO			RUPA			RELB			RFRM			RWRA			RWRB			RFIN			LASI			RASI			LPSI			RPSI			LTHI			LKNE			LTIB			LANK			LHEE			LTOE			RTHI			RKNE			RTIB			RANK			RHEE			RTOE			*39			*40			*41			*42			*43			*44		
		X1	Y1	Z1	X2	Y2	Z2	X3	Y3	Z3	X4	Y4	Z4	X5	Y5	Z5	X6	Y6	Z6	X7	Y7	Z7	X8	Y8	Z8	X9	Y9	Z9	X10	Y10	Z10	X11	Y11	Z11	X12	Y12	Z12	X13	Y13	Z13	X14	Y14	Z14	X15	Y15	Z15	X16	Y16	Z16	X17	Y17	Z17	X18	Y18	Z18	X19	Y19	Z19	X20	Y20	Z20	X21	Y21	Z21	X22	Y22	Z22	X23	Y23	Z23	X24	Y24	Z24	X25	Y25	Z25	X26	Y26	Z26	X27	Y27	Z27	X28	Y28	Z28	X29	Y29	Z29	X30	Y30	Z30	X31	Y31	Z31	X32	Y32	Z32	X33	Y33	Z33	X34	Y34	Z34	X35	Y35	Z35	X36	Y36	Z36	X37	Y37	Z37	X38	Y38	Z38	X39	Y39	Z39	X40	Y40	Z40	X41	Y41	Z41	X42	Y42	Z42	X43	Y43	Z43	X44	Y44	Z44	X45	Y45	Z45
																																																																																																																																								
57	0.56	-584.2793	1669.60718	931.49475	-574.89276	1663.57214	1063.27869	-715.91241	1612.22388	942.47742	-704.8479	1611.4657	1071.59631	-708.32062	1455.0957	1004.61304	-732.26965	1125.98145	1018.25201	-595.40619	1382.72034	1000.04297	-549.104	1207.16125	997.37305	-772.67535	1285.10986	1090.61694	-666.22424	1409.62183	842.46173	-675.05292	1206.24866	773.12164	-678.7796	1093.72583	764.55206	-654.93536	945.9668	741.40125	-594.50446	830.45367	781.24731	-655.62482	826.8526	743.97107	-614.06616	745.99847	740.46399	-633.56091	1416.50171	1162.71497	-647.70239	1216.59558	1253.17883	-621.08124	1097.18811	1267.19604	-581.94476	983.60376	1284.15625	-491.56598	863.20465	1255.79578	-548.40424	848.85498	1287.83691	-496.46582	782.73926	1290.89148	-558.63666	965.96857	904.89368	-554.71857	971.75385	1124.60413	-716.72815	991.87885	933.41211	-707.17328	998.56543	1101.99268	-561.36005	656.12714	847.84052	-512.8797	501.48611	872.30182	-669.62506	314.25046	883.53711	-768.30695	173.03253	920.67365	-801.53229	176.16862	973.58374	-672.54779	68.25407	895.91376	-606.03131	634.32831	1168.32837	-600.60944	509.72244	1137.51367	-672.63214	250.12418	1133.61475	-712.83032	69.93892	1081.06067	-757.55249	48.27765	1039.59827	-561.33948	31.06039	1071.43396	-680.94629	1708.2262	996.41779	NaN	NaN	NaN	NaN	NaN	NaN	NaN	NaN	NaN	NaN	NaN	NaN	NaN	NaN	NaN
58	0.57	-574.2619	1669.23035	931.66559	-564.62183	1663.30286	1063.47668	-705.81702	1611.91736	943.11743	-694.22833	1611.16577	1071.71448	-698.22784	1454.83484	1005.18286	-722.50775	1125.74622	1019.12097	-585.4588	1382.40674	1000.48108	-539.32452	1206.83838	998.03094	-762.6535	1284.99988	1091.83508	-656.39178	1409.22607	843.02441	-667.69806	1205.98206	773.71606	-673.34674	1093.63928	765.28632	-652.66559	945.36981	742.34338	-596.1441	828.18329	783.41205	-656.19226	826.41718	744.26343	-617.21686	744.11548	742.32196	-623.29828	1416.38953	1163.17688	-635.33673	1216.59021	1253.99341	-606.88062	1097.57336	1268.13696	-565.22644	984.91382	1285.07349	-472.11462	866.82605	1256.52148	-528.54419	850.99805	1288.46008	-474.92316	786.20941	1291.59424	-548.28265	966.21466	905.57965	-545.61127	971.18762	1125.38867	-707.02094	991.73224	933.76648	-697.90363	998.0531	1102.44446	-547.20984	657.61157	847.54669	-497.50732	503.60782	872.70685	-647.31104	309.75375	884.40314	-738.80676	163.80359	921.77588	-771.60498	164.66898	975.17279	-637.93781	64.91226	894.80646	-598.80273	633.4375	1167.44983	-595.59387	508.85559	1137.73596	-670.60632	250.00313	1133.52869	-712.66571	70.30672	1080.97375	-757.39203	48.80657	1039.30872	-561.20428	30.99666	1071.49512	-670.71332	1707.98669	996.74762	NaN	NaN	NaN	NaN	NaN	NaN	NaN	NaN	NaN	NaN	NaN	NaN	NaN	NaN	NaN
59	0.58	-564.18408	1668.73132	931.85028	-554.40967	1662.91528	1063.672	-695.86371	1611.54297	943.39636	-683.92664	1610.84851	1072.1062	-688.12726	1454.50781	1005.67688	-712.81519	1125.4375	1019.90448	-575.46112	1381.98145	1000.88501	-529.61017	1206.3147	998.66284	-752.6377	1284.87158	1092.83948	-646.45667	1408.65613	843.435	-660.32465	1205.59241	774.32904	-668.14459	1093.48071	766.03247	-650.61957	944.75043	743.24774	-597.4198	826.17023	785.34564	-656.55774	826.13214	744.74139	-619.80878	742.33014	744.17792	-612.98547	1416.12598	1163.56396	-623.01813	1216.46277	1254.79333	-592.98608	1097.88525	1269.16638	-548.80664	986.20038	1285.94763	-452.77988	870.55621	1257.4353	-508.93372	853.25806	1289.03333	-453.69034	789.85046	1292.12976	-538.90643	966.01324	906.55231	-536.4837	970.4563	1126.1239	-697.46906	991.43976	934.09308	-688.65405	997.37256	1102.80469	-534.52576	658.72815	847.67883	-482.66382	505.4418	873.07104	-624.47327	304.77512	885.16388	-708.56976	154.27872	922.68378	-741.15839	153.20935	976.50775	-602.88409	61.68933	893.86493	-592.12457	632.62866	1167.29932	-590.60516	507.88342	1137.9657	-668.53442	249.80632	1133.4563	-712.3598	70.59185	1080.80359	-757.20209	49.27951	1038.97876	-561.15601	31.00327	1071.62512	-660.54388	1707.58777	997.0647	NaN	NaN	NaN	NaN	NaN	NaN	NaN	NaN	NaN	NaN	NaN	NaN	NaN	NaN	NaN
60	0.59	-554.18787	1668.20874	932.01581	-544.2063	1662.44177	1063.83008	-685.75671	1610.93835	943.7254	-673.62579	1610.34119	1072.41174	-678.00488	1454.04553	1006.04181	-703.15936	1125.03894	1020.61481	-565.38599	1381.42944	1001.24652	-519.80182	1205.67786	999.25061	-742.71948	1284.70251	1093.73901	-636.42987	1407.98511	843.80927	-653.15729	1205.17041	774.84393	-663.09277	1093.23779	766.68561	-647.99731	943.95569	744.70526	-598.02124	824.49426	787.60883	-656.34857	825.66656	745.52002	-622.07288	740.8678	746.22614	-602.72089	1415.74792	1163.94653	-610.8454	1216.2688	1255.55566	-579.29144	1098.12146	1270.11304	-532.6449	987.47955	1286.78809	-433.84854	874.35364	1258.13025	-489.55911	855.58862	1289.48804	-432.76984	793.60449	1292.56555	-529.00671	965.82141	907.24048	-527.36383	969.63245	1126.78345	-687.51233	990.95245	934.28766	-679.23914	996.50482	1102.98743	-521.65802	659.65979	847.57733	-468.38004	507.02109	873.36047	-601.46423	299.32214	885.66644	-677.70227	144.7206	923.3689	-709.88025	141.63448	977.40613	-567.1062	58.45431	893.39142	-585.57263	631.66949	1167.87097	-585.70923	506.97406	1138.2074	-666.54077	249.70595	1133.40515	-712.08044	70.87732	1080.70142	-757.07861	49.80831	1038.76208	-561.06226	30.93417	1071.67993	-650.44598	1707.08044	997.35022	NaN	NaN	NaN	NaN	NaN	NaN	NaN	NaN	NaN	NaN	NaN	NaN	NaN	NaN	NaN
61	0.6	-544.11121	1667.50635	932.16412	-533.97729	1661.84216	1063.96899	-675.67792	1610.23218	944.09741	-663.44122	1609.74719	1072.75928	-667.77466	1453.55847	1006.42542	-693.38623	1124.49634	1021.21918	-555.35114	1380.7373	1001.54614	-509.95081	1204.94482	999.78448	-732.61639	1284.36914	1094.49304	-626.29175	1407.17273	844.15222	-645.94965	1204.69727	775.31958	-658.22443	1092.9657	767.36102	-645.76489	943.3139	745.67938	-599.15143	822.87604	789.9682	-656.16071	825.3266	746.52722	-623.92743	739.57031	748.31226	-592.36871	1415.26758	1164.24536	-598.78589	1215.98279	1256.27515	-565.7984	1098.33752	1271.05481	-516.80096	988.74463	1287.56995	-415.35684	878.15631	1258.38257	-470.54614	857.95355	1289.85046	-412.12778	797.44177	1292.88037	-519.08087	965.61481	907.82855	-519.14496	968.49683	1127.29993	-677.75671	990.33716	934.40466	-669.95258	995.64758	1103.14441	-509.328	660.29736	847.57098	-454.61234	508.20084	873.57239	-578.26825	293.60956	885.87659	-646.13116	135.19269	923.81824	-678.48389	130.34714	977.70886	-530.80408	55.55912	893.38281	-578.64813	630.98657	1167.35474	-580.7641	506.02985	1138.46155	-664.68091	249.6216	1133.24023	-711.86737	71.19785	1080.67688	-756.9231	50.33836	1038.58533	-560.96783	31.0597	1071.84595	-640.26239	1706.40833	997.53613	NaN	NaN	NaN	NaN	NaN	NaN	NaN	NaN	NaN	NaN	NaN	NaN	NaN	NaN	NaN
62	0.61	-533.95239	1666.66199	932.24866	-523.68982	1661.12378	1064.01733	-665.46863	1609.38367	944.34625	-653.15771	1608.98389	1073.02197	-657.52875	1452.88513	1006.76355	-683.67761	1123.92847	1021.78082	-545.2981	1379.81104	1001.81915	-500.05273	1204.03906	1000.31238	-722.57959	1284.01843	1095.15723	-616.08716	1406.23206	844.43408	-638.86426	1204.12585	775.75684	-653.21637	1092.60034	767.96759	-643.50891	942.70178	746.74408	-599.91388	821.36163	791.8266	-655.75433	824.99701	747.57635	-625.4397	738.39978	750.34924	-582.02716	1414.62292	1164.45544	-586.78137	1215.71509	1257.01904	-552.45746	1098.42102	1271.90076	-501.15466	989.95496	1288.28027	-397.21289	881.97614	1258.74658	-451.86172	860.33685	1290.05444	-391.94501	801.30298	1293.11035	-509.06912	965.23322	908.38727	-509.09265	967.67731	1127.81409	-668.00354	989.79492	934.5069	-660.68182	994.71106	1103.18628	-497.41904	660.63129	847.64008	-441.23611	508.97742	873.74591	-554.4455	287.51785	885.98499	-613.81049	125.63842	924.10199	-645.70111	119.06059	978.15912	-494.0722	52.9152	893.97095	-571.91614	630.09369	1167.16589	-575.79974	505.08841	1138.72913	-662.40454	249.4346	1133.33032	-711.57867	71.58412	1080.58289	-756.7005	50.8952	1038.39075	-560.88721	31.01636	1071.92041	-630.10565	1705.63623	997.70215	NaN	NaN	NaN	NaN	NaN	NaN	NaN	NaN	NaN	NaN	NaN	NaN	NaN	NaN	NaN
